<?xml version="1.0" encoding="UTF-8" standalone="no"?>
<!-- Created with Inkscape (http://www.inkscape.org/) -->

<svg
   width="210mm"
   height="297mm"
   viewBox="0 0 210 297"
   version="1.1"
   id="svg880"
   inkscape:version="1.1.1 (3bf5ae0d25, 2021-09-20)"
   sodipodi:docname="easytouse.svg"
   xmlns:inkscape="http://www.inkscape.org/namespaces/inkscape"
   xmlns:sodipodi="http://sodipodi.sourceforge.net/DTD/sodipodi-0.dtd"
   xmlns="http://www.w3.org/2000/svg"
   xmlns:svg="http://www.w3.org/2000/svg">
  <sodipodi:namedview
     id="namedview882"
     pagecolor="#ffffff"
     bordercolor="#666666"
     borderopacity="1.0"
     inkscape:pageshadow="2"
     inkscape:pageopacity="0.0"
     inkscape:pagecheckerboard="0"
     inkscape:document-units="mm"
     showgrid="false"
     inkscape:object-nodes="false"
     inkscape:snap-others="false"
     inkscape:zoom="0.76791526"
     inkscape:cx="472.05729"
     inkscape:cy="561.91096"
     inkscape:window-width="1614"
     inkscape:window-height="1033"
     inkscape:window-x="109"
     inkscape:window-y="106"
     inkscape:window-maximized="0"
     inkscape:current-layer="layer1" />
  <defs
     id="defs877" />
  <g
     inkscape:label="图层 1"
     inkscape:groupmode="layer"
     id="layer1">
    <path
       style="fill:#389826;fill-opacity:1;stroke-width:0.264583"
       d="m 47.638126,257.1822 c -4.97762,-0.42084 -9.44116,-1.71104 -14.21701,-4.10946 -10.40507,-5.22541 -17.185885,-13.6721 -20.449694,-25.47367 l -0.912257,-3.29862 v -66.15313 c 0,-71.328571 -0.08761,-67.738313 1.795092,-73.560895 1.887835,-5.838452 4.948992,-10.764514 9.545909,-15.361433 4.56256,-4.562559 9.55827,-7.665156 15.37598,-9.549288 5.80079,-1.87865 2.23222,-1.791714 73.546364,-1.791714 h 66.15313 l 3.29862,0.912257 c 6.43618,1.779971 11.56663,4.442413 16.34319,8.481288 6.46849,5.469495 11.71813,14.997776 12.91843,23.447401 0.26415,1.859481 0.34561,22.234304 0.27369,68.456024 l -0.10239,65.80859 -0.81493,2.90349 c -2.00301,7.13639 -5.41033,13.05732 -10.34203,17.97138 -5.68456,5.66424 -11.49665,8.81393 -19.85184,10.75812 -3.08227,0.71721 -3.48031,0.72192 -66.15313,0.78243 -34.678724,0.0335 -64.561924,-0.0668 -66.407124,-0.22277 z"
       id="path1033" />
    <rect
       style="fill:#ffffff;fill-opacity:1;stroke-width:0.264583"
       id="rect3020-13"
       width="52.688236"
       height="51.971111"
       x="85.379448"
       y="78.729111"
       rx="12.74826"
       ry="12.74826" />
    <rect
       style="fill:#ffffff;fill-opacity:1;stroke-width:0.264583"
       id="rect3020-11"
       width="52.688236"
       height="51.971111"
       x="113.43827"
       y="129.1442"
       rx="12.74826"
       ry="12.74826" />
    <rect
       style="fill:#ffffff;fill-opacity:1;stroke-width:0.264583"
       id="rect3020-1"
       width="52.688236"
       height="51.971111"
       x="56.844944"
       y="129.73326"
       rx="12.74826"
       ry="12.74826" />
    <rect
       style="fill:#ffffff;fill-opacity:1;stroke-width:0.264583"
       id="rect3020-2"
       width="52.688236"
       height="51.971111"
       x="141.80888"
       y="179.5593"
       rx="12.74826"
       ry="12.74826" />
    <rect
       style="fill:#ffffff;fill-opacity:1;stroke-width:0.264583"
       id="rect3020-5"
       width="52.688236"
       height="51.971111"
       x="85.691208"
       y="181.11531"
       rx="12.74826"
       ry="12.74826" />
    <rect
       style="fill:#ffffff;fill-opacity:1;stroke-width:0.264583"
       id="rect3020"
       width="52.688236"
       height="51.971111"
       x="29.631086"
       y="180.6485"
       rx="12.74826"
       ry="12.74826" />
  </g>
</svg>
